# xmcd
#
# Track frame offsets:
#	150
#	5476
#	20136
#	32357
#	50026
#	60371
#	80758
#	88405
#	104232
#	127482
#	150328
#	161204
#	173711
#	190716
#
# Disc length: 2863 seconds
#
# Revision: 6
# Processed by: cddbd v1.5.2PL0 Copyright (c) Steve Scherf et al.
# Submitted via: audiograbber 1.83.01
#
DISCID=bf0b2d0e
DTITLE=DIE STREUNER - Gebet eines Spielmanns
DYEAR=2002
DGENRE=Folk
TTITLE0=Gebet eines Spielmanns
TTITLE1=Halunken
TTITLE2=Jungfernwunsch
TTITLE3=Ein Hoch dem Bader
TTITLE4=Die Liebe
TTITLE5=Die Weiber von Paris
TTITLE6=In jedem vollem Becher Wein
TTITLE7=Sturmesnacht
TTITLE8=Wolfslied
TTITLE9=Zehn Orks
TTITLE10=Im tiefen Keller
TTITLE11=Der Schreiber im Korb
TTITLE12=Scherenschleiferweise
TTITLE13=Gebet eines Spielmanns
EXTD=
EXTT0=
EXTT1=
EXTT2=
EXTT3=
EXTT4=
EXTT5=
EXTT6=
EXTT7=
EXTT8=
EXTT9=
EXTT10=
EXTT11=
EXTT12=
EXTT13=
PLAYORDER=
